<svg width="499" height="67" viewBox="0 0 499 67" fill="none" xmlns="http://www.w3.org/2000/svg">
<rect width="499" height="67" fill="white"/>
<rect x="14" y="13" width="40" height="40" rx="20" fill="white"/>
<path fill-rule="evenodd" clip-rule="evenodd" d="M18.5332 26.8802C18.5332 26.8802 19.7514 26.7243 20.5635 27.4541C21.0645 27.9045 21.2105 28.6221 21.2105 28.6221L22.8691 35.1725L24.248 29.8106C24.3827 29.2407 24.6245 28.5362 25.0074 28.0596C25.4958 27.4528 26.4879 27.4147 26.5937 27.4147C26.6992 27.4147 27.6912 27.4528 28.1792 28.0596C28.5626 28.5362 28.8044 29.2407 28.939 29.8106L30.3179 35.1725L31.9761 28.6217C31.9761 28.6217 32.1225 27.9041 32.6236 27.4537C33.4357 26.7243 34.6534 26.8802 34.6534 26.8802L31.4777 39.1228C31.4777 39.1228 30.4303 39.1999 29.9062 38.9274C29.2178 38.5699 28.8902 38.2934 28.4733 36.6278L28.4301 36.4548C28.2781 35.8419 28.0454 34.882 27.8097 33.9081L27.7391 33.6159L27.6686 33.325C27.3292 31.924 27.0163 30.6338 26.9662 30.47C26.9192 30.3162 26.8634 29.95 26.5937 29.95C26.3293 29.95 26.2687 30.3166 26.2204 30.47C26.1637 30.6505 25.789 32.2026 25.4117 33.7618L25.3412 34.054C25.1484 34.8547 24.9536 35.655 24.7569 36.4548L24.7133 36.6278C24.2968 38.2934 23.9692 38.5699 23.2808 38.9274C22.7563 39.1999 21.7089 39.1228 21.7089 39.1228L18.5332 26.8802ZM37.7023 29.0567V29.4926L37.7032 29.4921V36.7768C37.6971 38.272 37.5406 38.6036 36.861 38.948C36.3325 39.2152 35.5248 39.114 35.5248 39.114V30.9545C35.5248 30.5449 35.662 30.2763 36.1683 30.0354C36.4702 29.8912 36.7521 29.7813 37.0448 29.6179C37.5027 29.3647 37.7023 29.0567 37.7023 29.0567ZM38.5745 26.921C38.5745 26.921 40.2637 26.6261 41.1002 27.4059C41.6352 27.9054 42.2338 28.8035 42.2338 28.8035L43.7064 30.9786C43.7779 31.0916 43.8711 31.2152 44.0201 31.2152C44.1695 31.2152 44.2632 31.0916 44.3347 30.9786L45.8073 28.8035C45.8073 28.8035 46.4059 27.9054 46.9409 27.4059C47.7774 26.6261 49.4665 26.921 49.4665 26.921L45.4644 33.0205L49.4556 39.1017L49.4417 39.1035C49.2761 39.1232 47.6833 39.2888 46.8908 38.5488C46.3553 38.0503 45.8073 37.2381 45.8073 37.2381L44.3347 35.0634C44.2632 34.9495 44.1695 34.8268 44.0205 34.8268C43.8711 34.8268 43.7779 34.9495 43.7064 35.0634L42.2338 37.2381C42.2338 37.2381 41.7153 38.0503 41.1803 38.5488C40.3438 39.33 38.585 39.1017 38.585 39.1017L42.5762 33.021L38.5745 26.921ZM37.6857 26.8662H37.7032C37.7032 27.703 37.6221 28.1989 37.0989 28.5849C36.8546 28.7655 36.5869 28.9117 36.3033 29.0194C35.838 29.1899 35.5248 29.4948 35.5248 29.4948C35.5248 27.972 35.7557 27.4208 36.3743 27.094C36.7512 26.896 37.3642 26.8688 37.6029 26.8662H37.6857Z" fill="black"/>
<rect x="391" y="13" width="40" height="40" rx="20" fill="white"/>
<path fill-rule="evenodd" clip-rule="evenodd" d="M414.312 21.2666H424.067V44.5866L414.312 21.2666ZM407.434 21.2666H397.667V44.5866L407.434 21.2666ZM410.87 29.859L417.09 44.5866H413.014L411.152 39.8951H406.6L410.87 29.859Z" fill="#FA0C00"/>
<rect x="289" y="13" width="40" height="40" rx="20" fill="white"/>
<g clip-path="url(#clip0_1261_10133)">
<path d="M299.366 20.1517L308.966 19.1338L318.566 20.1517L325.998 30.1587L308.966 50.0517L291.934 30.1587L299.366 20.1517Z" fill="#FDB300"/>
<path d="M298.833 30.1582L308.966 50.0513L291.934 30.1582H298.833Z" fill="#EA6C00"/>
<path d="M319.099 30.1582L308.966 50.0513L325.998 30.1582H319.099Z" fill="#EA6C00"/>
<path d="M298.832 30.1582H319.099L308.965 50.0513L298.832 30.1582Z" fill="#FDAD00"/>
<path d="M308.965 19.1338L299.365 20.1517L298.832 30.1587L308.965 19.1338Z" fill="#FDD231"/>
<path d="M308.966 19.1338L318.566 20.1517L319.1 30.1587L308.966 19.1338Z" fill="#FDD231"/>
<path d="M325.998 30.1583L318.566 20.1514L319.099 30.1583H325.998Z" fill="#FDAD00"/>
<path d="M291.934 30.1583L299.366 20.1514L298.833 30.1583H291.934Z" fill="#FDAD00"/>
<path d="M308.965 19.1338L298.832 30.1587H319.099L308.965 19.1338Z" fill="#FEEEB7"/>
</g>
<rect x="124" y="13" width="40" height="40" rx="20" fill="white"/>
<path d="M143.009 28.2813V42.9987H131L143.009 28.2813ZM143.009 23C143.009 24.6165 142.377 26.1668 141.251 27.3099C140.125 28.4529 138.597 29.0951 137.005 29.0951C135.412 29.0951 133.885 28.4529 132.759 27.3099C131.633 26.1668 131 24.6165 131 23H143.009ZM144.988 43C144.988 41.3835 145.621 39.8331 146.747 38.6902C147.873 37.547 149.4 36.9049 150.993 36.9049C152.585 36.9049 154.113 37.547 155.239 38.6902C156.365 39.8331 156.997 41.3835 156.997 43H144.988ZM144.988 37.7187V23H157L144.988 37.7174V37.7187Z" fill="#03363D"/>
<rect x="69" y="13" width="40" height="40" rx="20" fill="white"/>
<path fill-rule="evenodd" clip-rule="evenodd" d="M80.6639 24.4119C81.489 25.0823 81.7986 25.0312 83.3481 24.9278L97.9558 24.0507C98.2656 24.0507 98.008 23.7416 97.9047 23.6902L95.4787 21.9364C95.0138 21.5755 94.3945 21.1622 93.2075 21.2656L79.0628 22.2972C78.547 22.3484 78.4439 22.6063 78.6494 22.8131L80.6639 24.4119ZM81.5409 27.8163V43.1861C81.5409 44.0122 81.9537 44.3212 82.8828 44.2701L98.9366 43.3411C99.8662 43.29 99.9697 42.7219 99.9697 42.0509V26.7841C99.9697 26.1142 99.712 25.7529 99.143 25.8045L82.3665 26.7841C81.7474 26.8362 81.5409 27.1459 81.5409 27.8163ZM97.3893 28.6407C97.4922 29.1054 97.3893 29.5696 96.9237 29.6219L96.1503 29.776V41.123C95.4787 41.484 94.8594 41.6903 94.3433 41.6903C93.517 41.6903 93.3101 41.4322 92.6912 40.659L87.6316 32.716V40.4011L89.2327 40.7624C89.2327 40.7624 89.2327 41.6903 87.9409 41.6903L84.3799 41.8969C84.2765 41.6903 84.3799 41.175 84.7411 41.0718L85.6704 40.8142V30.6531L84.3802 30.5497C84.2767 30.085 84.5344 29.415 85.2576 29.3631L89.0778 29.1055L94.3433 37.1519V30.0339L93.0008 29.8798C92.8977 29.3118 93.3101 28.8993 93.8264 28.8481L97.3893 28.6407ZM77.8752 20.9047L92.5879 19.8212C94.3947 19.6663 94.8596 19.7701 95.9951 20.595L100.692 23.8959C101.467 24.4636 101.725 24.6181 101.725 25.2369V43.3411C101.725 44.4758 101.311 45.1468 99.8664 45.2495L82.7805 46.2812C81.6957 46.333 81.1794 46.1784 80.6113 45.4558L77.1528 40.9685C76.5331 40.1425 76.2754 39.5245 76.2754 38.8016V22.7093C76.2754 21.7814 76.6888 21.0074 77.8752 20.9047Z" fill="black"/>
<rect x="179" y="12" width="40" height="41.0256" rx="20" fill="white"/>
<path d="M211.701 32.2722L200.577 21.0836L199.499 20L187.299 32.2722C186.9 32.6744 186.9 33.3256 187.299 33.7271L194.949 41.4215L199.499 46L211.701 33.7271C212.1 33.3256 212.1 32.6744 211.701 32.2722ZM199.499 36.843L195.679 33.0002L199.499 29.156L203.321 33.0002L199.499 36.843Z" fill="#2684FF"/>
<path d="M200 29.135C197.317 26.6153 197.303 22.5345 199.971 20L191 28.4169L195.883 33L200 29.135Z" fill="url(#paint0_linear_1261_10133)"/>
<path d="M203.657 33L200 36.8506C201.152 38.0632 201.801 39.7091 201.801 41.4253C201.801 43.1413 201.152 44.7862 200 46L208 37.5747L203.657 33Z" fill="url(#paint1_linear_1261_10133)"/>
<rect x="234" y="13" width="40" height="40" rx="20" fill="white"/>
<path fill-rule="evenodd" clip-rule="evenodd" d="M243.552 20.7334C243.07 20.7334 242.607 20.9224 242.266 21.2587C241.925 21.5951 241.733 22.0513 241.733 22.5269V43.2065C241.733 43.6822 241.925 44.1384 242.266 44.4748C242.607 44.8111 243.07 45.0001 243.552 45.0001H264.181C264.663 45.0001 265.126 44.8111 265.467 44.4748C265.808 44.1384 266 43.6822 266 43.2065V22.5269C266 22.0513 265.808 21.5951 265.467 21.2587C265.126 20.9224 264.663 20.7334 264.181 20.7334H243.552ZM261.251 26.8911C261.349 26.2248 260.89 25.606 260.224 25.5073C257.71 25.1356 255.328 27.3692 252.787 32.2071C250.793 36.006 248.999 37.9153 247.777 37.8249C247.105 37.7752 246.521 38.2793 246.471 38.9499C246.422 39.6211 246.926 40.2057 247.597 40.2554C250.071 40.4379 252.421 38.1475 254.946 33.3399C256.922 29.5747 258.689 27.7437 259.867 27.9185C260.533 28.0162 261.153 27.5567 261.251 26.8905V26.8911Z" fill="url(#paint2_linear_1261_10133)"/>
<rect x="446" y="15" width="35" height="35" rx="17.5" fill="white"/>
<path d="M468.167 37.8665C470.744 37.8665 472.833 35.7772 472.833 33.1999C472.833 30.6225 470.744 28.5332 468.167 28.5332C465.589 28.5332 463.5 30.6225 463.5 33.1999C463.5 35.7772 465.589 37.8665 468.167 37.8665Z" fill="#19BCFE"/>
<path fill-rule="evenodd" clip-rule="evenodd" d="M458.834 47.1995C460.071 47.1995 461.258 46.7079 462.133 45.8327C463.009 44.9575 463.5 43.7706 463.5 42.5329V37.8662H458.834C457.596 37.8662 456.409 38.3579 455.534 39.233C454.659 40.1082 454.167 41.2952 454.167 42.5329C454.167 43.7706 454.659 44.9575 455.534 45.8327C456.409 46.7079 457.596 47.1995 458.834 47.1995V47.1995Z" fill="#09CF83"/>
<path fill-rule="evenodd" clip-rule="evenodd" d="M458.834 37.8665H463.5V28.5332H458.834C457.596 28.5332 456.409 29.0249 455.534 29.9C454.659 30.7752 454.167 31.9622 454.167 33.1999C454.167 34.4375 454.659 35.6245 455.534 36.4997C456.409 37.3749 457.596 37.8665 458.834 37.8665V37.8665Z" fill="#A259FF"/>
<path fill-rule="evenodd" clip-rule="evenodd" d="M458.834 28.5335H463.5V19.2002H458.834C457.596 19.2002 456.409 19.6919 455.534 20.567C454.659 21.4422 454.167 22.6292 454.167 23.8669C454.167 25.1045 454.659 26.2915 455.534 27.1667C456.409 28.0419 457.596 28.5335 458.834 28.5335V28.5335Z" fill="#F24E1E"/>
<path fill-rule="evenodd" clip-rule="evenodd" d="M468.167 28.5335H463.5V19.2002H468.167C469.404 19.2002 470.591 19.6919 471.466 20.567C472.342 21.4422 472.833 22.6292 472.833 23.8669C472.833 25.1045 472.342 26.2915 471.466 27.1667C470.591 28.0419 469.404 28.5335 468.167 28.5335Z" fill="#FF7262"/>
<rect x="344" y="17" width="32" height="32" rx="16" fill="#4353FF"/>
<path d="M365.9 29.8816C365.9 29.8816 364.136 35.415 363.992 35.8719C363.547 32.404 363.099 28.9366 362.646 25.4697C359.64 25.4697 358.032 27.6095 357.183 29.868L354.857 35.8855C354.843 35.4539 354.531 29.9332 354.531 29.9332C354.346 27.1661 351.811 25.4815 349.76 25.4815L352.243 40.5322C355.393 40.5186 357.091 38.3915 357.981 36.133C357.981 36.133 359.875 31.2388 359.953 31.0167C359.967 31.2252 361.313 40.5313 361.313 40.5313C364.476 40.5313 366.175 38.5348 367.089 36.3552L371.52 25.4824C368.396 25.4824 366.75 27.6095 365.9 29.8807V29.8816Z" fill="white"/>
<defs>
<linearGradient id="paint0_linear_1261_10133" x1="198.238" y1="26.2101" x2="193.841" y2="30.894" gradientUnits="userSpaceOnUse">
<stop stop-color="#0052CC"/>
<stop offset="1" stop-color="#2684FF"/>
</linearGradient>
<linearGradient id="paint1_linear_1261_10133" x1="201.612" y1="39.7284" x2="205.996" y2="35.5663" gradientUnits="userSpaceOnUse">
<stop stop-color="#0052CC"/>
<stop offset="1" stop-color="#2684FF"/>
</linearGradient>
<linearGradient id="paint2_linear_1261_10133" x1="234.192" y1="34.8373" x2="257.398" y2="49.9202" gradientUnits="userSpaceOnUse">
<stop stop-color="#2BEAED"/>
<stop offset="1" stop-color="#0FCCCE"/>
</linearGradient>
<clipPath id="clip0_1261_10133">
<rect width="34.1333" height="30.9333" fill="white" transform="translate(291.934 19.1338)"/>
</clipPath>
</defs>
</svg>
